<mxfile host="app.diagrams.net" modified="2021-07-10T14:38:27.202Z" agent="5.0 (Windows NT 10.0; Win64; x64) AppleWebKit/537.36 (KHTML, like Gecko) Chrome/91.0.4472.124 Safari/537.36" etag="T0ZPdOKGtd07DS_5rxBW" version="14.8.5" type="github">
  <diagram id="hWSsb01CtLQpheFJOtB3" name="Страница 1">
    <mxGraphModel dx="1038" dy="547" grid="1" gridSize="10" guides="1" tooltips="1" connect="1" arrows="1" fold="1" page="1" pageScale="1" pageWidth="850" pageHeight="1100" math="0" shadow="0">
      <root>
        <mxCell id="0" />
        <mxCell id="1" parent="0" />
        <mxCell id="QrSI-PS3gTBF9NS_67o7-50" style="edgeStyle=orthogonalEdgeStyle;rounded=0;orthogonalLoop=1;jettySize=auto;html=1;exitX=1;exitY=0.25;exitDx=0;exitDy=0;startArrow=classic;startFill=1;entryX=0;entryY=0.5;entryDx=0;entryDy=0;" edge="1" parent="1" source="QrSI-PS3gTBF9NS_67o7-33" target="QrSI-PS3gTBF9NS_67o7-42">
          <mxGeometry relative="1" as="geometry">
            <mxPoint x="580" y="125" as="targetPoint" />
          </mxGeometry>
        </mxCell>
        <mxCell id="QrSI-PS3gTBF9NS_67o7-52" style="edgeStyle=orthogonalEdgeStyle;rounded=0;orthogonalLoop=1;jettySize=auto;html=1;exitX=1;exitY=0.75;exitDx=0;exitDy=0;entryX=0;entryY=0.5;entryDx=0;entryDy=0;startArrow=none;startFill=0;" edge="1" parent="1" source="QrSI-PS3gTBF9NS_67o7-33" target="QrSI-PS3gTBF9NS_67o7-51">
          <mxGeometry relative="1" as="geometry" />
        </mxCell>
        <mxCell id="QrSI-PS3gTBF9NS_67o7-33" value="LoginActivity" style="rounded=0;whiteSpace=wrap;html=1;fontStyle=1" vertex="1" parent="1">
          <mxGeometry x="280" y="80" width="160" height="60" as="geometry" />
        </mxCell>
        <mxCell id="QrSI-PS3gTBF9NS_67o7-54" style="edgeStyle=orthogonalEdgeStyle;rounded=0;orthogonalLoop=1;jettySize=auto;html=1;exitX=1;exitY=0.5;exitDx=0;exitDy=0;entryX=0;entryY=0.5;entryDx=0;entryDy=0;startArrow=none;startFill=0;" edge="1" parent="1" source="QrSI-PS3gTBF9NS_67o7-34" target="QrSI-PS3gTBF9NS_67o7-53">
          <mxGeometry relative="1" as="geometry" />
        </mxCell>
        <mxCell id="QrSI-PS3gTBF9NS_67o7-34" value="&lt;pre style=&quot;background-color: #ffffff ; color: #080808 ; font-family: &amp;#34;jetbrains mono&amp;#34; , monospace ; font-size: 9 8pt&quot;&gt;&lt;span style=&quot;color: #000000&quot;&gt;LoginFragment&lt;/span&gt;&lt;/pre&gt;" style="rounded=0;whiteSpace=wrap;html=1;" vertex="1" parent="1">
          <mxGeometry x="280" y="140" width="160" height="30" as="geometry" />
        </mxCell>
        <mxCell id="QrSI-PS3gTBF9NS_67o7-56" style="edgeStyle=orthogonalEdgeStyle;rounded=0;orthogonalLoop=1;jettySize=auto;html=1;exitX=1;exitY=0.5;exitDx=0;exitDy=0;entryX=0;entryY=0.5;entryDx=0;entryDy=0;startArrow=none;startFill=0;" edge="1" parent="1" source="QrSI-PS3gTBF9NS_67o7-35" target="QrSI-PS3gTBF9NS_67o7-55">
          <mxGeometry relative="1" as="geometry" />
        </mxCell>
        <mxCell id="QrSI-PS3gTBF9NS_67o7-35" value="&lt;pre style=&quot;background-color: #ffffff ; color: #080808 ; font-family: &amp;#34;jetbrains mono&amp;#34; , monospace ; font-size: 9 8pt&quot;&gt;&lt;pre style=&quot;font-family: &amp;#34;jetbrains mono&amp;#34; , monospace&quot;&gt;&lt;span style=&quot;color: #000000&quot;&gt;LoginFragmentMobile&lt;/span&gt;&lt;/pre&gt;&lt;/pre&gt;" style="rounded=0;whiteSpace=wrap;html=1;" vertex="1" parent="1">
          <mxGeometry x="280" y="170" width="160" height="30" as="geometry" />
        </mxCell>
        <mxCell id="QrSI-PS3gTBF9NS_67o7-58" style="edgeStyle=orthogonalEdgeStyle;rounded=0;orthogonalLoop=1;jettySize=auto;html=1;exitX=1;exitY=0.5;exitDx=0;exitDy=0;entryX=0;entryY=0.25;entryDx=0;entryDy=0;startArrow=classic;startFill=1;" edge="1" parent="1" source="QrSI-PS3gTBF9NS_67o7-36" target="QrSI-PS3gTBF9NS_67o7-57">
          <mxGeometry relative="1" as="geometry" />
        </mxCell>
        <mxCell id="QrSI-PS3gTBF9NS_67o7-36" value="&lt;pre style=&quot;background-color: #ffffff ; color: #080808 ; font-family: &amp;#34;jetbrains mono&amp;#34; , monospace ; font-size: 9 8pt&quot;&gt;&lt;pre style=&quot;font-family: &amp;#34;jetbrains mono&amp;#34; , monospace&quot;&gt;&lt;pre style=&quot;font-family: &amp;#34;jetbrains mono&amp;#34; , monospace&quot;&gt;&lt;span style=&quot;color: #000000&quot;&gt;LoginFragmentPushList&lt;/span&gt;&lt;/pre&gt;&lt;/pre&gt;&lt;/pre&gt;" style="rounded=0;whiteSpace=wrap;html=1;" vertex="1" parent="1">
          <mxGeometry x="280" y="200" width="160" height="30" as="geometry" />
        </mxCell>
        <mxCell id="QrSI-PS3gTBF9NS_67o7-60" style="edgeStyle=orthogonalEdgeStyle;rounded=0;orthogonalLoop=1;jettySize=auto;html=1;exitX=1;exitY=0.5;exitDx=0;exitDy=0;entryX=0;entryY=0.5;entryDx=0;entryDy=0;startArrow=none;startFill=0;" edge="1" parent="1" source="QrSI-PS3gTBF9NS_67o7-37" target="QrSI-PS3gTBF9NS_67o7-55">
          <mxGeometry relative="1" as="geometry" />
        </mxCell>
        <mxCell id="QrSI-PS3gTBF9NS_67o7-37" value="&lt;pre style=&quot;background-color: #ffffff ; color: #080808 ; font-family: &amp;#34;jetbrains mono&amp;#34; , monospace ; font-size: 9 8pt&quot;&gt;&lt;pre style=&quot;font-family: &amp;#34;jetbrains mono&amp;#34; , monospace&quot;&gt;&lt;pre style=&quot;font-family: &amp;#34;jetbrains mono&amp;#34; , monospace&quot;&gt;&lt;span style=&quot;color: #000000&quot;&gt;LoginFragmentMoreGridNonAuthorized&lt;/span&gt;&lt;/pre&gt;&lt;/pre&gt;&lt;/pre&gt;" style="rounded=0;whiteSpace=wrap;html=1;" vertex="1" parent="1">
          <mxGeometry x="280" y="230" width="160" height="30" as="geometry" />
        </mxCell>
        <mxCell id="QrSI-PS3gTBF9NS_67o7-38" value="&lt;pre style=&quot;background-color: #ffffff ; color: #080808 ; font-family: &amp;#34;jetbrains mono&amp;#34; , monospace ; font-size: 9 8pt&quot;&gt;&lt;pre style=&quot;font-family: &amp;#34;jetbrains mono&amp;#34; , monospace&quot;&gt;&lt;pre style=&quot;font-family: &amp;#34;jetbrains mono&amp;#34; , monospace&quot;&gt;&lt;span style=&quot;color: #000000&quot;&gt;LoginFragmentPassword&lt;/span&gt;&lt;/pre&gt;&lt;/pre&gt;&lt;/pre&gt;" style="rounded=0;whiteSpace=wrap;html=1;" vertex="1" parent="1">
          <mxGeometry x="280" y="260" width="160" height="30" as="geometry" />
        </mxCell>
        <mxCell id="QrSI-PS3gTBF9NS_67o7-39" value="&lt;pre style=&quot;background-color: #ffffff ; color: #080808 ; font-family: &amp;#34;jetbrains mono&amp;#34; , monospace ; font-size: 9 8pt&quot;&gt;&lt;pre style=&quot;font-family: &amp;#34;jetbrains mono&amp;#34; , monospace&quot;&gt;&lt;pre style=&quot;font-family: &amp;#34;jetbrains mono&amp;#34; , monospace&quot;&gt;&lt;pre style=&quot;font-family: &amp;#34;jetbrains mono&amp;#34; , monospace&quot;&gt;&lt;span style=&quot;color: #000000&quot;&gt;LoginFragmentOnetimePassword&lt;/span&gt;&lt;/pre&gt;&lt;/pre&gt;&lt;/pre&gt;&lt;/pre&gt;" style="rounded=0;whiteSpace=wrap;html=1;" vertex="1" parent="1">
          <mxGeometry x="280" y="290" width="160" height="30" as="geometry" />
        </mxCell>
        <mxCell id="QrSI-PS3gTBF9NS_67o7-40" value="&lt;pre style=&quot;background-color: #ffffff ; color: #080808 ; font-family: &amp;#34;jetbrains mono&amp;#34; , monospace ; font-size: 9 8pt&quot;&gt;&lt;pre style=&quot;font-family: &amp;#34;jetbrains mono&amp;#34; , monospace&quot;&gt;&lt;pre style=&quot;font-family: &amp;#34;jetbrains mono&amp;#34; , monospace&quot;&gt;&lt;pre style=&quot;font-family: &amp;#34;jetbrains mono&amp;#34; , monospace&quot;&gt;&lt;pre style=&quot;font-family: &amp;#34;jetbrains mono&amp;#34; , monospace&quot;&gt;&lt;span style=&quot;color: #000000&quot;&gt;ZSInWork&lt;/span&gt;&lt;/pre&gt;&lt;/pre&gt;&lt;/pre&gt;&lt;/pre&gt;&lt;/pre&gt;" style="rounded=0;whiteSpace=wrap;html=1;" vertex="1" parent="1">
          <mxGeometry x="280" y="320" width="160" height="30" as="geometry" />
        </mxCell>
        <mxCell id="QrSI-PS3gTBF9NS_67o7-41" style="edgeStyle=orthogonalEdgeStyle;rounded=0;orthogonalLoop=1;jettySize=auto;html=1;exitX=0.75;exitY=0;exitDx=0;exitDy=0;entryX=1;entryY=0.5;entryDx=0;entryDy=0;" edge="1" parent="1" source="QrSI-PS3gTBF9NS_67o7-33" target="QrSI-PS3gTBF9NS_67o7-33">
          <mxGeometry relative="1" as="geometry" />
        </mxCell>
        <mxCell id="QrSI-PS3gTBF9NS_67o7-42" value="&lt;pre style=&quot;background-color: #ffffff ; color: #080808 ; font-family: &amp;#34;jetbrains mono&amp;#34; , monospace ; font-size: 9 8pt&quot;&gt;&lt;span style=&quot;color: #000000&quot;&gt;ZSActivityTest&lt;/span&gt;&lt;/pre&gt;" style="rounded=0;whiteSpace=wrap;html=1;fontStyle=1" vertex="1" parent="1">
          <mxGeometry x="600" y="40" width="160" height="60" as="geometry" />
        </mxCell>
        <mxCell id="QrSI-PS3gTBF9NS_67o7-51" value="&lt;pre style=&quot;background-color: rgb(255 , 255 , 255) ; font-family: &amp;#34;jetbrains mono&amp;#34; , monospace&quot;&gt;MainActivity&lt;/pre&gt;" style="rounded=0;whiteSpace=wrap;html=1;fontStyle=1;fillColor=#dae8fc;strokeColor=#6c8ebf;" vertex="1" parent="1">
          <mxGeometry x="800" y="200" width="160" height="60" as="geometry" />
        </mxCell>
        <mxCell id="QrSI-PS3gTBF9NS_67o7-53" value="&lt;pre style=&quot;background-color: #ffffff ; color: #080808 ; font-family: &amp;quot;jetbrains mono&amp;quot; , monospace ; font-size: 9 8pt&quot;&gt;&lt;span style=&quot;color: #000000&quot;&gt;DemoSettingsActivity&lt;/span&gt;&lt;/pre&gt;" style="rounded=0;whiteSpace=wrap;html=1;fontStyle=1" vertex="1" parent="1">
          <mxGeometry x="720" y="320" width="160" height="60" as="geometry" />
        </mxCell>
        <mxCell id="QrSI-PS3gTBF9NS_67o7-55" value="&lt;pre style=&quot;background-color: #ffffff ; color: #080808 ; font-family: &amp;#34;jetbrains mono&amp;#34; , monospace ; font-size: 9 8pt&quot;&gt;&lt;pre style=&quot;font-family: &amp;#34;jetbrains mono&amp;#34; , monospace&quot;&gt;&lt;span style=&quot;color: #000000&quot;&gt;Intent&lt;/span&gt;.&lt;span style=&quot;color: #871094 ; font-style: italic&quot;&gt;ACTION_DIAL&lt;/span&gt;&lt;/pre&gt;&lt;/pre&gt;" style="rounded=0;whiteSpace=wrap;html=1;fontStyle=1" vertex="1" parent="1">
          <mxGeometry x="640" y="440" width="160" height="60" as="geometry" />
        </mxCell>
        <mxCell id="QrSI-PS3gTBF9NS_67o7-57" value="&lt;pre style=&quot;background-color: #ffffff ; color: #080808 ; font-family: &amp;#34;jetbrains mono&amp;#34; , monospace ; font-size: 9 8pt&quot;&gt;&lt;span style=&quot;color: #067d17&quot;&gt;action: &quot;android.settings.APP_NOTIFICATION_SETTINGS&quot;&lt;/span&gt;&lt;/pre&gt;" style="rounded=0;whiteSpace=wrap;html=1;verticalAlign=middle;" vertex="1" parent="1">
          <mxGeometry x="560" y="560" width="160" height="60" as="geometry" />
        </mxCell>
        <mxCell id="QrSI-PS3gTBF9NS_67o7-61" value="" style="endArrow=classic;html=1;" edge="1" parent="1">
          <mxGeometry width="50" height="50" relative="1" as="geometry">
            <mxPoint x="200" y="109.5" as="sourcePoint" />
            <mxPoint x="280" y="109.5" as="targetPoint" />
          </mxGeometry>
        </mxCell>
      </root>
    </mxGraphModel>
  </diagram>
</mxfile>
